The.Darkest.Hour.2011.TS.NewSource.XviD-ZOMBiES








Release Name : The Darkest Hour 2011 TS NewSource XviD - ZOMBiES
Rating : 5.2/10
Genre : Action, Horror, Sci-Fi, Thriller
Stars : Emile Hirsch, Olivia Thirlby, Max Minghella, Rachael Taylor
Director : Chris Gorak
Writers : Jon Spaihts, Leslie Bohem
Release Date : 25 Dec 2011
Movie Runtime : 1 hr 29 mins
Rated Under : PG-13
Movie Plot : In Moscow, five young people lead the charge against an alien race who have attacked Earth via our power supply.
 
http://www.imdb.com/title/tt1093357/


Format : AVI
Format/Info : Audio Video Interleave
File size : 673 MiB
Duration : 1h 22mn
Overall bit rate : 1 140 Kbps
Writing application : MEncoder SVN-r33823-4.1.2
Writing library : MPlayer

Video
ID : 0
Format : xvid
Codec ID : xvid
Duration : 1h 22mn
Bit rate : 1 000 Kbps
Width : 688 pixels
Height : 352 pixels
Display aspect ratio : 1.955
Frame rate : 23.976 fps
Bits/(Pixel*Frame) : 0.172
Stream size : 590 MiB (88%)

Audio
ID : 1
Format : MPEG Audio
Format version : Version 1
Format profile : Layer 3
Mode : Joint stereo
Mode extension : MS Stereo
Codec ID : 55
Codec ID/Hint : MP3
Duration : 1h 22mn
Bit rate mode : Constant
Bit rate : 128 Kbps
Channel(s) : 2 channels
Sampling rate : 44.1 KHz
Compression mode : Lossy
Stream size : 75.5 MiB (11%)
Alignment : Aligned on interleaves
Interleave, duration : 26 ms (0.63 video frame)
Interleave, preload duration : 522 ms
Writing library : LAME3.98.4

Want to know what's ZOMBiES next release ?



